<svg
   xmlns:dc="http://purl.org/dc/elements/1.1/"
   xmlns:cc="http://creativecommons.org/ns#"
   xmlns:rdf="http://www.w3.org/1999/02/22-rdf-syntax-ns#"
   xmlns:svg="http://www.w3.org/2000/svg"
   xmlns="http://www.w3.org/2000/svg"
   xmlns:sodipodi="http://sodipodi.sourceforge.net/DTD/sodipodi-0.dtd"
   xmlns:inkscape="http://www.inkscape.org/namespaces/inkscape"
   width="350mm"
   height="350mm"
   viewBox="0 0 350 350"
   version="1.1"
   id="svg975"
   sodipodi:docname="logo_fill.svg"
   inkscape:version="0.92.4 (5da689c313, 2019-01-14)">
  <defs
     id="defs969" />
  <sodipodi:namedview
     id="base"
     pagecolor="#ffffff"
     bordercolor="#666666"
     borderopacity="1.0"
     inkscape:pageopacity="0.0"
     inkscape:pageshadow="2"
     inkscape:zoom="0.175"
     inkscape:cx="-829.88404"
     inkscape:cy="1111.8611"
     inkscape:document-units="mm"
     inkscape:current-layer="layer1"
     showgrid="false"
     inkscape:window-width="1920"
     inkscape:window-height="1017"
     inkscape:window-x="-8"
     inkscape:window-y="-8"
     inkscape:window-maximized="1" />
  <metadata
     id="metadata972">
    <rdf:RDF>
      <cc:Work
         rdf:about="">
        <dc:format>image/svg+xml</dc:format>
        <dc:type
           rdf:resource="http://purl.org/dc/dcmitype/StillImage" />
        <dc:title></dc:title>
      </cc:Work>
    </rdf:RDF>
  </metadata>
  <g
     inkscape:label="Capa 1"
     inkscape:groupmode="layer"
     id="layer1"
     transform="translate(0,53)">
    <path
       style="stroke-width:0.03527778"
       inkscape:connector-curvature="0"
       d="m 166.43194,-27.530658 c -18.23861,2.010833 -34.18417,8.784167 -48.04834,20.4611118 -10.795,9.101667 -19.508601,21.7311112 -24.623881,35.5952802 -1.69334,4.550833 -3.81,12.946944 -4.62139,18.344444 -0.84667,5.609166 -0.84667,16.862779 -0.0353,21.766389 0.84667,4.868338 0.81139,5.362228 -0.56444,6.843888 -1.94028,2.151954 -5.25639,1.940284 -6.80861,-0.38805 -0.88195,-1.34056 -1.86973,-7.866948 -2.11667,-13.934725 -0.35278,-8.008056 0.56444,-16.404169 2.75167,-25.470559 0.42333,-1.72861 0.67027,-3.175 0.56444,-3.280833 -0.38806,-0.388054 -11.35945,0.529167 -14.81667,1.234723 -11.253611,2.293056 -22.965831,7.9375 -31.573611,15.204723 -13.511386,11.500557 -21.836946,25.893891 -25.011946,43.180001 -0.74083,4.23334 -1.05833,15.945555 -0.52916,20.496385 1.94028,16.61584 8.74889,30.72696 20.49639,42.50973 9.242766,9.27806 19.226386,14.99306 32.279167,18.55612 7.3025,1.97555 10.51277,3.84527 12.80583,7.40833 2.18722,3.4925 2.43417,4.97417 3.77472,23.03639 1.34056,18.34445 2.68111,35.41889 2.75167,35.48945 0.0353,0.0353 1.34055,-0.0706 2.89278,-0.24696 8.53722,-0.81137 34.501661,-2.25777 50.976381,-2.82221 15.06361,-0.52917 60.46612,-0.52917 74.08334,0 18.13278,0.67028 42.26278,2.04611 50.90583,2.89278 2.11667,0.21166 3.88056,0.3175 3.95111,0.24693 0.0353,-0.0705 0.35278,-4.16276 0.67028,-9.10165 1.51695,-23.00112 3.21028,-42.36862 4.445,-51.08223 0.3175,-2.46944 0.52917,-4.58611 0.45861,-4.7625 -0.0706,-0.14111 -0.67027,-0.24694 -1.27,-0.24694 -1.62277,0 -8.74889,-1.55223 -12.24139,-2.64584 -10.12472,-3.24555 -20.99027,-10.86555 -27.09333,-19.01472 -1.48167,-1.97556 -1.83444,-2.71639 -1.83444,-3.81 0,-2.82222 1.76388,-4.51556 4.65666,-4.51556 1.41111,0 1.62278,0.14111 3.45722,2.18723 9.41917,10.54805 16.79223,15.27527 28.04584,17.92111 18.13277,4.30389 39.15833,-2.96334 53.86917,-18.66195 8.67833,-9.2075 14.04056,-19.61445 16.72166,-32.27918 1.1289,-5.29166 1.55224,-16.086655 0.88194,-21.625265 -1.02304,-8.149166 -2.9986,-14.88723 -6.42054,-21.801671 -11.99446,-24.02417 -35.52473,-38.62917 -62.37112,-38.62917 -4.7625,0 -5.36222,0.07056 -5.18583,0.564444 0.10583,0.282223 0.38805,2.751667 0.635,5.468056 0.70555,8.219723 -0.42334,17.427223 -3.13973,25.364723 -2.04611,6.06778 -3.10444,7.761113 -5.25638,8.466667 -1.58751,0.529167 -3.35139,-0.03528 -4.55084,-1.481667 -0.81139,-0.9525 -0.91722,-1.340553 -0.77611,-2.892776 0.10583,-0.987777 0.88194,-3.880557 1.79917,-6.385277 2.15194,-6.173613 3.06916,-11.500557 3.06916,-18.344447 0,-6.244166 -0.67027,-11.324166 -2.11666,-15.628056 -8.29028,-24.8002802 -30.40945,-44.80278 -57.18528,-51.78778 -6.70278,-1.763889 -11.28889,-2.328333 -19.57917,-2.434167 -4.26861,-0.07055 -8.39611,-0.03528 -9.17222,0.03528 z m 14.46389,23.8125008 c 3.73944,0.458611 10.93611,2.2225 12.10028,2.99861196 1.94027,1.27 2.68111,3.81000004 1.69333,5.75027604 -1.12889,2.151947 -3.10444,2.71639 -6.38528,1.799167 -5.78555,-1.5875 -8.5725,-1.940277 -15.875,-1.940277 -5.92667,0 -7.69056,0.14111 -11.04194,0.81139 -21.23723,4.26861 -37.50028,19.5791672 -42.4039,39.8286132 -0.59972,2.434167 -1.02305,3.421943 -1.76388,4.162777 -1.97556,1.905 -5.25639,1.41111 -6.70279,-0.987777 -0.91722,-1.481667 -0.88194,-2.187223 0.35278,-6.773333 3.73945,-14.00528 12.52362,-26.317226 24.90612,-34.9602802 3.31611,-2.328333 11.57111,-6.42055604 15.48694,-7.72583604 3.95111,-1.26999896 7.90223,-2.25777696 11.43,-2.82222096 3.73945,-0.564445 13.93473,-0.670278 18.20334,-0.141111 z M 44.511938,72.658235 c 0.59972,0.49389 1.27,1.48167 1.48166,2.18722 0.35278,1.19945 0.24695,1.62278 -0.88194,4.339174 -5.3975,13.052776 -4.90361,26.987491 1.41111,38.734991 2.08139,3.88056 3.77472,6.10306 7.62,10.19529 2.99861,3.13972 3.10445,3.28083 3.10445,4.93889 0,1.905 -0.59973,2.99861 -2.11667,3.77472 -2.89278,1.48167 -5.36222,0.0706 -10.30111,-5.82083 -4.40973,-5.29168 -7.83167,-11.35946 -9.736666,-17.28612 -2.01083,-6.35 -2.36361,-8.67834 -2.36361,-16.404165 0,-6.10306 0.10583,-7.54945 0.81139,-10.72445 1.55222,-6.949716 4.233326,-13.37027 5.961936,-14.287498 1.5875,-0.846666 3.77473,-0.705556 5.00945,0.352778 z M 141.10249,160.9938 c 2.36361,1.41111 2.25778,0.0353 2.15195,28.96306 l -0.10584,26.14083 -1.12889,1.02306 c -0.635,0.56444 -1.5875,1.12889 -2.08138,1.23472 -1.44639,0.35278 -3.52778,-0.45861 -4.445,-1.72861 l -0.81139,-1.12889 -0.10584,-25.85861 c -0.10583,-28.57501 -0.17639,-27.23445 2.15195,-28.64556 0.635,-0.38806 1.62278,-0.70556 2.18722,-0.70556 0.59972,0 1.55222,0.3175 2.18722,0.70556 z m -28.22222,13.61722 c 1.86972,1.16417 1.79917,0.59972 1.94028,22.29556 l 0.10583,20.21417 -1.30528,1.23472 c -1.05833,0.9525 -1.62278,1.19944 -2.75167,1.19944 -0.81139,0 -1.905,-0.24694 -2.46944,-0.52916 -2.15194,-1.12889 -2.11666,-0.67028 -2.11666,-22.50723 0,-19.89666 0,-19.89666 0.77611,-20.88444 1.44638,-1.86972 3.84527,-2.29306 5.82083,-1.02306 z"
       id="path899" />
    <path
       style="stroke-width:0.03527778"
       inkscape:connector-curvature="0"
       d="m 149.85138,244.95491 c -22.5425,0.56444 -41.41612,1.48167 -57.608611,2.78694 -4.51555,0.35279 -8.29027,0.74083 -8.39611,0.84667 -0.24694,0.24696 0.91722,18.52083 1.30528,20.56696 0.74083,3.7747 3.66889,6.73804 7.44361,7.54943 1.27,0.24694 3.81,0.24694 8.713611,0 40.46361,-2.08139 92.88639,-2.18723 138.67695,-0.28223 17.85055,0.74084 18.0975,0.70557 21.09611,-1.97554 2.57528,-2.36362 2.89278,-3.59833 3.66889,-15.31056 0.35278,-5.715 0.635,-10.44223 0.56444,-10.4775 -0.3175,-0.3175 -23.88305,-2.0814 -35.56,-2.64583 -23.07167,-1.09361 -58.56111,-1.5875 -79.90417,-1.05834 z"
       id="path901" />
  </g>
</svg>
